Coordinates
version=1
nRows=9
nColumns=63
inDegrees=yes

Units are S.I. units (second, meters, Newtons, ...)
If the header above contains a line with 'inDegrees', this indicates whether rotational values are in degrees (yes) or radians (no).

endheader
time	pelvis_tilt	pelvis_list	pelvis_rotation	pelvis_tx	pelvis_ty	pelvis_tz	hip_flexion_r	hip_adduction_r	hip_rotation_r	knee_angle_r	knee_angle_r_beta	ankle_angle_r	subtalar_angle_r	mtp_angle_r	hip_flexion_l	hip_adduction_l	hip_rotation_l	knee_angle_l	knee_angle_l_beta	ankle_angle_l	subtalar_angle_l	mtp_angle_l	L5_S1_Flex_Ext	L5_S1_Lat_Bending	L5_S1_axial_rotation	L4_L5_Flex_Ext	L4_L5_Lat_Bending	L4_L5_axial_rotation	L3_L4_Flex_Ext	L3_L4_Lat_Bending	L3_L4_axial_rotation	L2_L3_Flex_Ext	L2_L3_Lat_Bending	L2_L3_axial_rotation	L1_L2_Flex_Ext	L1_L2_Lat_Bending	L1_L2_axial_rotation	L1_T12_Flex_Ext	L1_T12_Lat_Bending	L1_T12_axial_rotation	Abs_r3	Abs_r2	Abs_r1	Abs_t1	Abs_t2	neck_flexion	neck_bending	neck_rotation	arm_flex_r	arm_add_r	arm_rot_r	elbow_flex_r	pro_sup_r	wrist_flex_r	wrist_dev_r	arm_flex_l	arm_add_l	arm_rot_l	elbow_flex_l	pro_sup_l	wrist_flex_l	wrist_dev_l
     10.05000000	      1.09443599	     11.19041764	     97.70829408	      0.12887472	      1.05600106	      0.12731352	     -4.63185669	     -0.73075371	    -11.12199442	     18.75329883	      0.32730681	     23.43572605	      0.20818905	      0.00000000	     -3.62838203	     -3.42331323	     -7.83672293	     20.67680211	      0.36087828	     21.10078506	     10.96131169	      0.00000000	     -0.26461607	      0.69318595	      0.18236987	     -0.49141850	      0.92193731	      0.19376799	     -0.43473773	      1.68541231	      0.19376799	     -0.30242970	      1.68541231	      0.15957364	     -0.24572248	      1.41354478	      0.14817552	     -0.15120162	      1.07374503	      0.13677740	     -1.89012609	      7.84145808	      1.01428650	      0.00000000	      0.00000000	     -5.65055272	      2.07128559	    -13.79919634	     47.10232566	     -1.73090895	     19.65177656	    135.74360446	     89.17612000	    -24.26135120	      8.75683526	    588.64465744	   -182.26356746	    566.13548171	    142.26615122	     88.86291792	    -13.59287562	     -1.76002888
     10.06666667	      1.03431600	     11.34389513	     97.48562190	      0.12977524	      1.05622205	      0.12672812	     -4.67780832	     -0.78841791	    -11.04209663	     19.07268818	      0.33288121	     23.15248288	      0.08064964	      0.00000000	     -3.90920264	     -3.38269352	     -8.20357154	     20.48350582	      0.35750462	     21.40242305	     11.09303772	      0.00000000	     -0.23885787	      0.69703171	      0.11990326	     -0.44358295	      0.92705217	      0.12739722	     -0.39241959	      1.69476290	      0.12739722	     -0.27299066	      1.69476290	      0.10491535	     -0.22180342	      1.42138706	      0.09742140	     -0.13648339	      1.07970212	      0.08992745	     -1.70613788	      7.88496209	      0.66686597	      0.00000000	      0.00000000	     -6.65568260	      1.79469725	    -14.38451420	     46.31727975	     -1.52321617	     19.01916526	    135.43095111	     89.21922663	    -24.53649810	      9.23802910	    588.22236542	   -181.87903661	    565.71381873	    141.35733384	     88.78355571	    -14.09426355	     -1.45100879
     10.08333333	      0.92121374	     11.29198105	     96.82710175	      0.13154531	      1.05623901	      0.12564068	     -4.44861578	     -0.78018505	     -9.48463963	     19.36762459	      0.33802882	     22.50834114	     -1.72037214	      0.00000000	     -4.18146490	     -3.49561764	    -10.61143355	     20.13769141	      0.35146902	     21.55519273	     13.49868209	      0.00000000	     -0.19093544	      0.67993197	      0.15278195	     -0.35458620	      0.90430953	      0.16233082	     -0.31368783	      1.65318660	      0.16233082	     -0.21822011	      1.65318660	      0.13368421	     -0.17730265	      1.38651728	      0.12413533	     -0.10910051	      1.05321463	      0.11458646	     -1.36383272	      7.69152647	      0.84972737	      0.00000000	      0.00000000	     -7.81474528	      1.08012063	    -15.93333491	     45.27390098	     -1.35218743	     17.88448442	    135.52883689	     89.28731681	    -23.34307124	     12.40166493	    587.83275995	   -181.33349759	    566.10791090	    140.47043051	     88.75456843	    -16.94142439	     -0.66269900
     10.10000000	      0.94805410	     11.40543063	     96.50898344	      0.13228048	      1.05629242	      0.12494335	     -4.43354262	     -0.80062323	     -9.50820421	     19.67463821	      0.34338722	     22.11425921	     -1.80756958	      0.00000000	     -4.37188711	     -3.50674999	    -10.99518592	     20.09544764	      0.35073173	     21.52656460	     13.36311916	      0.00000000	     -0.18135917	      0.69057655	      0.06313067	     -0.33680212	      0.91846681	      0.06707633	     -0.29795499	      1.67906782	      0.06707633	     -0.20727540	      1.67906782	      0.05523933	     -0.16841013	      1.40822370	      0.05129367	     -0.10362863	      1.06970308	      0.04734800	     -1.29543044	      7.81194005	      0.35111383	      0.00000000	      0.00000000	     -8.62810235	      1.01576420	    -16.34146498	     44.45966313	     -1.11374091	     17.58245134	    134.65185898	     89.31542317	    -23.39445004	     12.68078456	    587.18094013	   -180.90607997	    565.66675999	    139.59452446	     88.69718193	    -17.29078504	     -0.28735296
     10.11666667	      0.95493587	     11.17382288	     96.06605352	      0.13301658	      1.05619139	      0.12336275	     -4.16835844	     -0.84319318	     -9.11146752	     19.77074031	      0.34506451	     21.83293023	     -2.15105185	      0.00000000	     -4.38309149	     -3.45559064	    -11.60800178	     19.86913428	      0.34678181	     21.19485485	     13.48716641	      0.00000000	     -0.10326028	      0.70095409	     -0.01123334	     -0.19176466	      0.93226894	     -0.01193543	     -0.16964631	      1.70429977	     -0.01193543	     -0.11801617	      1.70429977	     -0.00982918	     -0.09588749	      1.42938557	     -0.00912709	     -0.05900292	      1.08577788	     -0.00842501	     -0.73757784	      7.92933282	     -0.06247649	      0.00000000	      0.00000000	     -9.72396909	      0.30451638	    -16.77558687	     43.36138414	     -0.83791914	     17.40745489	    133.64276076	     89.34830689	    -22.65039627	     12.69846548	    586.15806606	   -180.37934808	    565.43667902	    139.36801865	     88.67768941	    -18.13014244	      0.94003460
     10.13333333	      1.20425602	     11.17958387	     95.49312154	      0.13375471	      1.05611299	      0.12232303	     -4.05479583	     -0.62306257	     -8.64653147	     19.90937026	      0.34748406	     21.77166392	     -2.35802698	      0.00000000	     -4.50586940	     -3.69341325	    -12.30122605	     19.98154490	      0.34874375	     20.90632776	     13.28807480	      0.00000000	     -0.08263334	      0.74527650	     -0.04205548	     -0.15345838	      0.99121775	     -0.04468395	     -0.13575831	      1.81206528	     -0.04468395	     -0.09444164	      1.81206528	     -0.03679854	     -0.07673332	      1.51976784	     -0.03417008	     -0.04721669	      1.15443330	     -0.03154161	     -0.59024168	      8.43071682	     -0.23389995	      0.00000000	      0.00000000	     -9.69400238	      0.66229212	    -16.54258523	     42.60289420	     -0.71889285	     17.16564847	    132.43670045	     89.37358549	    -20.88271103	     11.99517985	    585.26649287	   -180.21927001	    565.25725931	    139.47723447	     88.69252402	    -18.94899308	      2.67429021
     10.15000000	      1.30673425	     11.25748467	     95.15077460	      0.13423137	      1.05612988	      0.12152609	     -4.06031160	     -0.58297003	     -8.65933783	     20.02569496	      0.34951431	     22.10551186	     -1.92973103	      0.00000000	     -4.72452362	     -3.76893313	    -12.57540073	     20.03738147	      0.34971828	     20.47210442	     12.78294376	      0.00000000	     -0.07427354	      0.77396610	     -0.07884854	     -0.13793340	      1.02937492	     -0.08377658	     -0.12202401	      1.88182118	     -0.08377658	     -0.08488723	      1.88182118	     -0.06899247	     -0.06897041	      1.57827168	     -0.06406444	     -0.04243990	      1.19887349	     -0.05913641	     -0.53052850	      8.75525935	     -0.43853193	      0.00000000	      0.00000000	     -9.17977311	      1.46524229	    -16.12291833	     41.90785056	     -0.53157132	     16.86528418	    131.43006295	     89.39083169	    -18.78507950	     11.73049982	    584.46642734	   -180.12358039	    564.96410756	    139.63439875	     88.76023349	    -18.94377858	      3.91059804
     10.16666667	      1.44553169	     11.38622187	     94.99757632	      0.13466939	      1.05628718	      0.12073549	     -4.18084835	     -0.40845477	     -8.58264239	     20.02687998	      0.34953499	     22.60115360	     -1.78494837	      0.00000000	     -4.95060484	     -3.95239256	    -12.77411059	     20.16038231	      0.35186505	     20.08478176	     12.51802373	      0.00000000	     -0.06313596	      0.80510259	     -0.10032173	     -0.11724979	      1.07078644	     -0.10659184	     -0.10372607	      1.95752643	     -0.10659184	     -0.07215809	      1.95752643	     -0.08778152	     -0.05862805	      1.64176520	     -0.08151141	     -0.03607589	      1.24710391	     -0.07524130	     -0.45097386	      9.10748149	     -0.55795938	      0.00000000	      0.00000000	     -8.61362006	      2.09929962	    -16.28322281	     41.20035890	     -0.57254337	     16.98352449	    131.03993021	     89.40791165	    -18.62447907	     11.79446046	    583.74134508	   -180.07646544	    565.00340170	    139.66954968	     88.84040585	    -18.92266892	      3.96538139
     10.18333333	      1.54519272	     11.56102805	     94.29783089	      0.13574108	      1.05655179	      0.12005364	     -4.32080883	     -0.48356289	     -8.83346183	     19.99855322	      0.34904060	     23.25980333	     -0.05484832	      0.00000000	     -5.39289903	     -3.90634715	    -12.97084024	     20.05298412	      0.34999060	     19.74717100	     11.45201740	      0.00000000	     -0.06162216	      0.82614229	      0.01861389	     -0.11443852	      1.09876925	      0.01977726	     -0.10123905	      2.00868236	      0.01977726	     -0.07042797	      2.00868236	      0.01628715	     -0.05722234	      1.68466936	      0.01512379	     -0.03521090	      1.27969441	      0.01396042	     -0.44016096	      9.34548681	      0.10352487	      0.00000000	      0.00000000	     -7.46550977	      5.03236273	    -15.59998931	     40.16868460	     -0.50919863	     16.39658324	    131.19942776	     89.40375633	    -17.11859155	     11.48996180	    583.24683584	   -180.38030867	    565.17269284	    139.56392394	     88.98456959	    -17.95259488	      4.12351845
